<svg xmlns="http://www.w3.org/2000/svg"><symbol id="dontknow" viewBox="0 0 365.442 365.442"><title>dontknow</title><path d="M212.994,274.074h-68.522c-3.042,0-5.708,1.149-7.992,3.429c-2.286,2.286-3.427,4.948-3.427,7.994v68.525 c0,3.046,1.145,5.712,3.427,7.994c2.284,2.279,4.947,3.426,7.992,3.426h68.522c3.042,0,5.715-1.144,7.99-3.426 c2.29-2.282,3.433-4.948,3.433-7.994v-68.525c0-3.046-1.14-5.708-3.433-7.994C218.709,275.217,216.036,274.074,212.994,274.074z"/><path d="M302.935,68.951c-7.806-14.378-17.891-26.506-30.266-36.406c-12.367-9.896-26.271-17.799-41.685-23.697 C215.567,2.952,200.246,0,185.016,0C127.157,0,83,25.315,52.544,75.946c-1.521,2.473-2.046,5.137-1.571,7.993 c0.478,2.852,1.953,5.232,4.427,7.135l46.824,35.691c2.474,1.52,4.854,2.281,7.139,2.281c3.427,0,6.375-1.525,8.852-4.57 c13.702-17.128,23.887-28.072,30.548-32.833c8.186-5.518,18.461-8.276,30.833-8.276c11.61,0,21.838,3.046,30.692,9.132 c8.85,6.092,13.271,13.135,13.271,21.129c0,8.942-2.375,16.178-7.135,21.698c-4.757,5.518-12.754,10.845-23.986,15.986 c-14.842,6.661-28.457,16.988-40.823,30.978c-12.375,13.991-18.558,28.885-18.558,44.682v12.847c0,3.62,0.994,7.187,2.996,10.708 c2,3.524,4.425,5.283,7.282,5.283h68.521c3.046,0,5.708-1.472,7.994-4.432c2.279-2.942,3.426-6.036,3.426-9.267 c0-4.757,2.617-11.14,7.847-19.13c5.235-7.994,11.752-14.186,19.562-18.565c7.419-4.186,13.219-7.56,17.411-10.133 c4.196-2.566,9.664-6.715,16.423-12.421c6.756-5.712,11.991-11.375,15.698-16.988c3.713-5.614,7.046-12.896,9.996-21.844 c2.956-8.945,4.428-18.558,4.428-28.835C314.639,98.397,310.734,83.314,302.935,68.951z"/></symbol><symbol id="favorite" viewBox="0 0 475.075 475.075"><title>favorite</title><path d="M475.075,186.573c0-7.043-5.328-11.42-15.992-13.135L315.766,152.6L251.529,22.694c-3.614-7.804-8.281-11.704-13.99-11.704 c-5.708,0-10.372,3.9-13.989,11.704L159.31,152.6L15.986,173.438C5.33,175.153,0,179.53,0,186.573c0,3.999,2.38,8.567,7.139,13.706 l103.924,101.068L86.51,444.096c-0.381,2.666-0.57,4.575-0.57,5.712c0,3.997,0.998,7.374,2.996,10.136 c1.997,2.766,4.993,4.142,8.992,4.142c3.428,0,7.233-1.137,11.42-3.423l128.188-67.386l128.197,67.386 c4.004,2.286,7.81,3.423,11.416,3.423c3.819,0,6.715-1.376,8.713-4.142c1.992-2.758,2.991-6.139,2.991-10.136 c0-2.471-0.096-4.374-0.287-5.712l-24.555-142.749l103.637-101.068C472.604,195.33,475.075,190.76,475.075,186.573z"/></symbol><symbol id="neutral" viewBox="0 0 438.533 438.533"><title>neutral</title><path d="M409.133,109.203c-19.608-33.592-46.205-60.189-79.798-79.796C295.736,9.801,259.058,0,219.273,0 c-39.781,0-76.47,9.801-110.063,29.407c-33.595,19.604-60.192,46.201-79.8,79.796C9.801,142.8,0,179.489,0,219.267 c0,39.78,9.804,76.463,29.407,110.062c19.607,33.592,46.204,60.189,79.799,79.798c33.597,19.605,70.283,29.407,110.063,29.407 s76.47-9.802,110.065-29.407c33.585-19.602,60.183-46.206,79.795-79.798c19.603-33.596,29.403-70.284,29.403-110.062 C438.533,179.485,428.732,142.795,409.133,109.203z M219.27,374.579c-28.171,0-54.152-6.943-77.943-20.844 c-23.789-13.895-42.633-32.743-56.527-56.527c-13.897-23.791-20.843-49.772-20.843-77.945c0-28.171,6.949-54.152,20.843-77.943 c13.891-23.791,32.738-42.637,56.527-56.531c23.791-13.894,49.772-20.841,77.943-20.841V374.579z"/></symbol><symbol id="wontsee" viewBox="0 0 511.626 511.627"><title>wontsee</title><path d="M361.161,291.652c15.037-21.796,22.56-45.922,22.56-72.375c0-7.422-0.76-15.417-2.286-23.984l-79.938,143.321 C326.235,329.101,346.125,313.438,361.161,291.652z"/><path d="M372.872,94.221c0.191-0.378,0.28-1.235,0.28-2.568c0-3.237-1.522-5.802-4.571-7.715c-0.568-0.38-2.423-1.475-5.568-3.287 c-3.138-1.805-6.14-3.567-8.989-5.282c-2.854-1.713-5.989-3.472-9.422-5.28c-3.426-1.809-6.375-3.284-8.846-4.427 c-2.479-1.141-4.189-1.713-5.141-1.713c-3.426,0-6.092,1.525-7.994,4.569l-15.413,27.696c-17.316-3.234-34.451-4.854-51.391-4.854 c-51.201,0-98.404,12.946-141.613,38.831C70.998,156.08,34.836,191.385,5.711,236.114C1.903,242.019,0,248.586,0,255.819 c0,7.231,1.903,13.801,5.711,19.698c16.748,26.073,36.592,49.396,59.528,69.949c22.936,20.561,48.011,37.018,75.229,49.396 c-8.375,14.273-12.562,22.556-12.562,24.842c0,3.425,1.524,6.088,4.57,7.99c23.219,13.329,35.97,19.985,38.256,19.985 c3.422,0,6.089-1.529,7.992-4.575l13.99-25.406c20.177-35.967,50.248-89.931,90.222-161.878 C322.908,183.871,352.886,130.005,372.872,94.221z M158.456,362.885C108.97,340.616,68.33,304.93,36.547,255.822 c28.931-44.921,65.19-78.518,108.777-100.783c-11.61,19.792-17.417,41.206-17.417,64.237c0,20.365,4.661,39.68,13.99,57.955 c9.327,18.274,22.27,33.4,38.83,45.392L158.456,362.885z M265.525,155.887c-2.662,2.667-5.906,3.999-9.712,3.999 c-16.368,0-30.361,5.808-41.971,17.416c-11.613,11.615-17.416,25.603-17.416,41.971c0,3.811-1.336,7.044-3.999,9.71 c-2.668,2.667-5.902,3.999-9.707,3.999c-3.809,0-7.045-1.334-9.71-3.999c-2.667-2.666-3.999-5.903-3.999-9.71 c0-23.79,8.52-44.206,25.553-61.242c17.034-17.034,37.447-25.553,61.241-25.553c3.806,0,7.043,1.336,9.713,3.999 c2.662,2.664,3.996,5.901,3.996,9.707C269.515,149.992,268.181,153.228,265.525,155.887z"/><path d="M505.916,236.114c-10.853-18.08-24.603-35.594-41.255-52.534c-16.646-16.939-34.022-31.496-52.105-43.68l-17.987,31.977 c31.785,21.888,58.625,49.87,80.51,83.939c-23.024,35.782-51.723,65-86.07,87.648c-34.358,22.661-71.712,35.693-112.065,39.115 l-21.129,37.688c42.257,0,82.18-9.038,119.769-27.121c37.59-18.076,70.668-43.488,99.216-76.225 c13.322-15.421,23.695-29.219,31.121-41.401c3.806-6.476,5.708-13.046,5.708-19.702 C511.626,249.157,509.724,242.59,505.916,236.114z"/></symbol><symbol id="willsee" viewBox="0 0 511.626 511.626"><title>willsee</title><path d="M505.918,236.117c-26.651-43.587-62.485-78.609-107.497-105.065c-45.015-26.457-92.549-39.687-142.608-39.687 c-50.059,0-97.595,13.225-142.61,39.687C68.187,157.508,32.355,192.53,5.708,236.117C1.903,242.778,0,249.345,0,255.818 c0,6.473,1.903,13.04,5.708,19.699c26.647,43.589,62.479,78.614,107.495,105.064c45.015,26.46,92.551,39.68,142.61,39.68 c50.06,0,97.594-13.176,142.608-39.536c45.012-26.361,80.852-61.432,107.497-105.208c3.806-6.659,5.708-13.223,5.708-19.699 C511.626,249.345,509.724,242.778,505.918,236.117z M194.568,158.03c17.034-17.034,37.447-25.554,61.242-25.554 c3.805,0,7.043,1.336,9.709,3.999c2.662,2.664,4,5.901,4,9.707c0,3.809-1.338,7.044-3.994,9.704 c-2.662,2.667-5.902,3.999-9.708,3.999c-16.368,0-30.362,5.808-41.971,17.416c-11.613,11.615-17.416,25.603-17.416,41.971 c0,3.811-1.336,7.044-3.999,9.71c-2.667,2.668-5.901,3.999-9.707,3.999c-3.809,0-7.044-1.334-9.71-3.999 c-2.667-2.666-3.999-5.903-3.999-9.71C169.015,195.482,177.535,175.065,194.568,158.03z M379.867,349.04 c-38.164,23.12-79.514,34.687-124.054,34.687c-44.539,0-85.889-11.56-124.051-34.687s-69.901-54.2-95.215-93.222 c28.931-44.921,65.19-78.518,108.777-100.783c-11.61,19.792-17.417,41.207-17.417,64.236c0,35.216,12.517,65.329,37.544,90.362 s55.151,37.544,90.362,37.544c35.214,0,65.329-12.518,90.362-37.544s37.545-55.146,37.545-90.362 c0-23.029-5.808-44.447-17.419-64.236c43.585,22.265,79.846,55.865,108.776,100.783C449.767,294.84,418.031,325.913,379.867,349.04 z"/></symbol><symbol id="dislike" viewBox="0 0 475.092 475.092"><title>dislike</title><path d="M442.822,209.562c1.715-6.283,2.57-12.847,2.57-19.702c0-14.655-3.621-28.361-10.852-41.112 c0.567-3.995,0.855-8.088,0.855-12.275c0-19.223-5.716-36.162-17.132-50.819v-1.427c0.191-26.075-7.946-46.632-24.414-61.669 C377.387,7.521,355.831,0,329.186,0h-31.977c-19.985,0-39.02,2.093-57.102,6.28c-18.086,4.189-39.304,10.468-63.666,18.842 c-22.08,7.616-35.211,11.422-39.399,11.422H54.821c-10.088,0-18.702,3.567-25.84,10.704C21.845,54.387,18.276,63,18.276,73.085 v182.728c0,10.089,3.566,18.698,10.705,25.837c7.142,7.139,15.752,10.705,25.84,10.705h78.228 c6.849,4.572,19.889,19.324,39.113,44.255c11.231,14.661,21.416,26.741,30.551,36.265c3.612,3.997,6.564,10.089,8.848,18.271 c2.284,8.186,3.949,16.228,4.998,24.126c1.047,7.898,3.475,16.516,7.281,25.837c3.806,9.329,8.944,17.139,15.415,23.422 c7.423,7.043,15.985,10.561,25.697,10.561c15.988,0,30.361-3.087,43.112-9.274c12.754-6.184,22.463-15.845,29.126-28.981 c6.663-12.943,9.996-30.646,9.996-53.103c0-17.702-4.568-35.974-13.702-54.819h50.244c19.801,0,36.925-7.23,51.394-21.7 c14.469-14.462,21.693-31.497,21.693-51.103C456.809,239.165,452.15,223.652,442.822,209.562z M85.942,104.219 c-3.616,3.615-7.898,5.424-12.847,5.424c-4.95,0-9.233-1.805-12.85-5.424c-3.615-3.621-5.424-7.898-5.424-12.851 c0-4.948,1.809-9.231,5.424-12.847c3.621-3.617,7.9-5.424,12.85-5.424c4.949,0,9.231,1.807,12.847,5.424 c3.617,3.616,5.426,7.898,5.426,12.847C91.368,96.317,89.56,100.598,85.942,104.219z M409.135,281.377 c-7.42,7.33-15.886,10.992-25.413,10.992H283.227c0,11.04,4.564,26.217,13.698,45.535c9.138,19.321,13.71,34.598,13.71,45.829 c0,18.647-3.046,32.449-9.134,41.395c-6.092,8.949-18.274,13.422-36.546,13.422c-4.951-4.948-8.572-13.045-10.854-24.276 c-2.276-11.225-5.185-23.168-8.706-35.83c-3.519-12.655-9.18-23.079-16.984-31.266c-4.184-4.373-11.516-13.038-21.982-25.98 c-0.761-0.951-2.952-3.806-6.567-8.562c-3.614-4.757-6.613-8.658-8.992-11.703c-2.38-3.046-5.664-7.091-9.851-12.136 c-4.189-5.044-7.995-9.232-11.422-12.565c-3.427-3.327-7.089-6.708-10.992-10.137c-3.901-3.426-7.71-5.996-11.421-7.707 c-3.711-1.711-7.089-2.566-10.135-2.566h-9.136V73.092h9.136c2.474,0,5.47-0.282,8.993-0.854c3.518-0.571,6.658-1.192,9.419-1.858 c2.76-0.666,6.377-1.713,10.849-3.14c4.476-1.425,7.804-2.522,9.994-3.283c2.19-0.763,5.568-1.951,10.138-3.571 c4.57-1.615,7.33-2.613,8.28-2.996c40.159-13.894,72.708-20.839,97.648-20.839h36.542c16.563,0,29.506,3.899,38.828,11.704 c9.328,7.804,13.989,19.795,13.989,35.975c0,4.949-0.479,10.279-1.423,15.987c5.708,3.046,10.231,8.042,13.559,14.987 c3.333,6.945,4.996,13.944,4.996,20.985c0,7.039-1.711,13.61-5.141,19.701c10.089,9.517,15.126,20.839,15.126,33.974 c0,4.759-0.948,10.039-2.847,15.846c-1.899,5.808-4.285,10.327-7.139,13.562c6.091,0.192,11.184,4.665,15.276,13.422 c4.093,8.754,6.14,16.468,6.14,23.127C420.277,265.525,416.561,274.043,409.135,281.377z"/></symbol><symbol id="like" viewBox="0 0 475.099 475.099"><title>like</title><path d="M442.829,265.532c9.328-14.089,13.986-29.598,13.986-46.538c0-19.607-7.225-36.637-21.687-51.117 c-14.469-14.465-31.601-21.696-51.394-21.696h-50.251c9.134-18.842,13.709-37.117,13.709-54.816c0-22.271-3.34-39.971-9.996-53.105 c-6.663-13.138-16.372-22.795-29.126-28.984C295.313,3.09,280.947,0,264.959,0c-9.712,0-18.274,3.521-25.697,10.566 c-8.183,7.993-14.084,18.274-17.699,30.837c-3.617,12.559-6.521,24.6-8.708,36.116c-2.187,11.515-5.569,19.652-10.135,24.41 c-9.329,10.088-19.511,22.273-30.551,36.547c-19.224,24.932-32.264,39.685-39.113,44.255H54.828 c-10.088,0-18.702,3.574-25.84,10.706c-7.135,7.139-10.705,15.752-10.705,25.841v182.723c0,10.089,3.566,18.699,10.705,25.838 c7.142,7.139,15.752,10.711,25.84,10.711h82.221c4.188,0,17.319,3.806,39.399,11.42c23.413,8.186,44.017,14.418,61.812,18.702 c17.797,4.284,35.832,6.427,54.106,6.427h26.545h10.284c26.836,0,48.438-7.666,64.809-22.99 c16.365-15.324,24.458-36.213,24.27-62.67c11.42-14.657,17.129-31.597,17.129-50.819c0-4.185-0.281-8.277-0.855-12.278 c7.23-12.748,10.854-26.453,10.854-41.11C445.399,278.379,444.544,271.809,442.829,265.532z M85.949,396.58 c-3.616,3.614-7.898,5.428-12.847,5.428c-4.95,0-9.233-1.813-12.85-5.428c-3.615-3.613-5.424-7.897-5.424-12.85 c0-4.948,1.805-9.229,5.424-12.847c3.621-3.617,7.9-5.425,12.85-5.425c4.949,0,9.231,1.808,12.847,5.425 c3.617,3.617,5.426,7.898,5.426,12.847C91.375,388.683,89.566,392.967,85.949,396.58z M414.145,242.419 c-4.093,8.754-9.186,13.227-15.276,13.415c2.854,3.237,5.235,7.762,7.139,13.562c1.902,5.807,2.847,11.087,2.847,15.848 c0,13.127-5.037,24.455-15.126,33.969c3.43,6.088,5.141,12.658,5.141,19.697c0,7.043-1.663,14.038-4.996,20.984 c-3.327,6.94-7.851,11.938-13.559,14.982c0.951,5.709,1.423,11.04,1.423,15.988c0,31.785-18.274,47.678-54.823,47.678h-34.536 c-24.94,0-57.483-6.943-97.648-20.841c-0.953-0.38-3.709-1.383-8.28-2.998s-7.948-2.806-10.138-3.565 c-2.19-0.767-5.518-1.861-9.994-3.285c-4.475-1.431-8.087-2.479-10.849-3.142c-2.758-0.664-5.901-1.283-9.419-1.855 c-3.52-0.571-6.519-0.855-8.993-0.855h-9.136V219.285h9.136c3.045,0,6.423-0.859,10.135-2.568c3.711-1.714,7.52-4.283,11.421-7.71 c3.903-3.427,7.564-6.805,10.992-10.138c3.427-3.33,7.233-7.517,11.422-12.559c4.187-5.046,7.47-9.089,9.851-12.135 c2.378-3.045,5.375-6.949,8.992-11.707c3.615-4.757,5.806-7.613,6.567-8.566c10.467-12.941,17.795-21.601,21.982-25.981 c7.804-8.182,13.466-18.603,16.987-31.261c3.525-12.66,6.427-24.604,8.703-35.832c2.282-11.229,5.903-19.321,10.858-24.27 c18.268,0,30.453,4.471,36.542,13.418c6.088,8.945,9.134,22.746,9.134,41.399c0,11.229-4.572,26.503-13.71,45.821 c-9.134,19.32-13.698,34.5-13.698,45.539h100.495c9.527,0,17.993,3.662,25.413,10.994c7.426,7.327,11.143,15.843,11.143,25.553 C420.284,225.943,418.237,233.653,414.145,242.419z"/></symbol></svg>
